<?xml version="1.0" standalone="no"?>
<!DOCTYPE svg PUBLIC "-//W3C//DTD SVG 20010904//EN"
 "http://www.w3.org/TR/2001/REC-SVG-20010904/DTD/svg10.dtd">
<svg version="1.0" xmlns="http://www.w3.org/2000/svg"
 width="1366.000000pt" height="768.000000pt" viewBox="0 0 1366.000000 768.000000"
 preserveAspectRatio="xMidYMid meet">

<g transform="translate(0.000000,768.000000) scale(0.100000,-0.100000)"
fill="#000000" stroke="none">
<path d="M0 3840 l0 -3840 6832 0 c3757 0 6829 2 6826 5 -2 3 -1067 5 -2365 5
-2018 0 -2360 2 -2360 14 0 9 8 13 20 11 15 -3 16 -1 8 9 -8 10 -7 17 4 26 8
7 12 16 9 21 -3 5 0 8 8 7 7 -2 12 2 11 8 -1 6 5 11 13 11 12 0 12 -3 -1 -17
-8 -9 -12 -20 -8 -25 5 -4 2 -5 -6 0 -10 6 -12 4 -6 -5 6 -9 4 -11 -6 -5 -8 5
-10 4 -6 0 16 -18 34 -13 33 9 -1 12 4 20 12 18 8 -1 11 2 8 7 -3 5 1 14 9 21
11 9 12 16 4 26 -8 10 -6 12 11 9 18 -3 20 -2 10 10 -10 12 -8 13 9 10 15 -3
19 0 14 8 -16 25 -10 34 18 32 19 -2 26 1 22 9 -13 19 -12 35 3 47 8 6 11 15
8 20 -3 5 0 8 8 7 7 -2 12 3 10 10 -1 6 4 11 10 10 7 -2 12 2 11 8 -1 6 5 11
12 11 10 0 12 -4 5 -12 -5 -7 -6 -16 -2 -20 4 -5 2 -5 -5 -1 -6 3 -14 3 -17
-2 -2 -4 6 -8 18 -8 17 0 22 6 22 21 -1 11 -5 25 -9 32 -5 8 -1 11 14 8 17 -3
19 -2 9 10 -10 12 -8 13 10 10 18 -3 20 -2 10 10 -10 12 -8 13 9 10 15 -3 19
0 14 8 -10 16 -13 37 -5 34 4 -1 8 3 10 8 2 6 10 17 18 26 8 9 11 19 7 24 -5
4 -3 5 3 2 14 -8 47 26 37 38 -5 4 -2 5 5 1 10 -6 10 -11 2 -21 -8 -10 -8 -15
1 -21 7 -4 9 -3 6 3 -4 6 0 16 8 23 11 9 12 16 4 26 -8 10 -6 12 11 9 18 -3
20 -2 10 10 -10 12 -8 13 9 10 15 -3 19 0 14 8 -13 21 -11 35 7 52 14 12 20
13 26 4 5 -8 3 -10 -6 -4 -9 6 -11 4 -5 -5 6 -9 4 -11 -6 -5 -8 5 -11 5 -7 0
4 -4 3 -13 -2 -20 -7 -8 -5 -12 5 -12 7 0 13 5 12 11 -1 6 3 10 9 9 6 -1 10
12 10 30 -1 26 3 32 20 31 16 -1 21 4 20 20 -1 12 4 20 12 18 6 -1 11 4 10 10
-2 7 3 12 10 10 6 -1 11 4 10 10 -2 7 3 12 10 10 6 -1 11 4 10 10 -2 7 2 12 8
11 12 -2 13 35 1 54 -5 8 -1 11 14 8 17 -3 19 -2 9 10 -10 12 -8 13 9 10 15
-3 19 0 14 8 -12 18 -11 30 5 49 10 12 12 29 7 55 -3 21 -1 70 5 108 27 168
130 289 280 329 30 8 54 19 53 24 -2 6 7 9 18 7 17 -3 19 -2 9 10 -10 12 -8
13 9 10 15 -3 19 0 14 8 -13 20 -12 36 3 48 8 6 12 15 9 18 -2 4 2 8 10 8 10
0 12 -4 5 -12 -5 -7 -6 -16 -2 -20 4 -5 0 -5 -8 0 -8 5 -12 5 -8 0 4 -4 3 -13
-2 -20 -7 -8 -5 -12 5 -12 7 0 13 5 12 11 -1 6 3 10 9 9 12 -2 13 35 1 54 -5
8 -1 11 14 8 17 -3 19 -2 9 10 -10 12 -8 13 7 10 12 -2 20 2 20 10 0 8 -3 12
-7 10 -3 -2 -6 7 -6 20 0 13 5 23 11 22 5 -1 9 3 8 10 -2 7 6 10 17 8 14 -3
18 0 13 8 -12 20 -12 37 0 34 7 -1 11 8 11 20 -1 12 4 21 10 20 6 -1 10 3 9 9
-1 6 5 11 13 11 12 0 12 -3 -1 -17 -8 -9 -12 -20 -8 -25 5 -4 1 -5 -7 0 -8 5
-12 4 -7 0 4 -5 0 -16 -8 -25 -13 -14 -13 -17 -1 -17 8 0 14 5 13 11 -1 6 3
10 9 9 6 -1 11 8 10 20 0 12 4 21 11 20 6 -1 10 5 8 15 -2 9 -4 17 -5 17 -1 0
-3 8 -5 17 -2 12 3 15 17 13 16 -3 18 -2 8 10 -10 12 -8 13 7 10 12 -2 20 2
20 10 0 8 -3 12 -7 10 -3 -2 -6 7 -6 20 0 13 5 23 11 22 5 -1 9 3 8 10 -2 7 6
10 17 8 14 -3 18 0 13 8 -13 21 -11 35 6 51 15 14 18 14 18 1 0 -8 -5 -11 -11
-8 -6 3 -8 3 -4 -2 4 -4 3 -13 -2 -20 -7 -8 -5 -12 5 -12 7 0 13 5 12 11 -1 6
3 10 9 9 5 -1 10 9 10 21 0 14 -6 23 -16 23 -8 0 -131 1 -272 2 l-258 1 0 160
0 160 -98 0 c-98 0 -98 0 -130 33 l-32 33 0 197 c0 225 6 247 68 275 20 9 73
19 117 22 l80 5 3 63 3 62 273 0 c317 0 346 -5 427 -77 l48 -44 115 2 c92 2
113 5 105 15 -8 10 -6 12 11 9 18 -4 20 -2 9 11 -10 12 -10 15 1 12 10 -2 14
10 15 45 l1 47 -41 0 c-28 0 -50 7 -66 21 -21 18 -24 30 -27 110 l-4 89 -302
0 c-297 0 -304 0 -347 23 -35 19 -45 31 -52 60 -8 31 -15 38 -45 47 -54 15
-130 62 -188 117 -48 46 -52 54 -63 118 -21 129 -20 125 -51 125 -16 0 -41 11
-56 24 l-28 23 0 149 c1 280 1 278 30 308 16 15 43 29 65 32 22 4 39 9 40 13
0 3 4 44 8 91 8 79 10 86 42 112 31 26 39 28 125 28 117 0 124 5 124 103 0 59
4 75 22 94 l21 23 -33 0 c-18 0 -30 3 -26 8 4 4 13 7 19 7 7 0 13 17 13 43 1
23 3 44 4 47 1 3 3 9 4 14 0 5 4 12 8 16 8 8 5 -16 -4 -31 -4 -6 -1 -11 6 -11
14 0 15 34 3 54 -5 8 -1 11 11 8 11 -2 19 3 19 10 0 8 -3 12 -7 10 -9 -5 -6
62 2 71 4 4 6 -3 3 -14 -2 -12 1 -24 7 -28 5 -3 61 -6 124 -6 131 0 156 10
180 69 13 30 13 41 2 76 -22 67 -50 80 -184 86 -72 4 -119 2 -123 -4 -5 -5 -7
-33 -5 -61 3 -51 3 -52 -25 -50 -27 1 -41 23 -15 23 7 0 10 -5 7 -10 -4 -6 -1
-7 6 -3 7 5 10 11 7 14 -3 3 -1 11 5 18 7 8 7 14 -1 19 -6 4 -9 1 -8 -5 2 -7
-5 -14 -15 -15 -17 -3 -17 -2 -3 14 9 10 13 21 9 25 -5 4 -1 6 7 4 11 -2 15 7
14 39 0 33 3 40 16 38 18 -3 22 28 7 52 -5 8 -1 11 12 8 15 -3 19 1 16 15 -3
13 6 24 25 34 16 8 28 10 27 4 -1 -6 6 -12 16 -13 13 -3 15 0 8 9 -8 9 1 13
37 14 101 5 142 37 142 111 0 57 -37 98 -98 107 -26 4 -55 7 -65 5 -14 -2 -18
3 -15 16 2 10 10 17 16 15 8 -1 12 11 12 33 0 21 5 34 11 33 6 -2 13 5 14 15
2 9 -1 15 -6 11 -5 -3 -6 -10 -3 -16 5 -7 2 -8 -5 -3 -9 5 -6 14 11 33 13 14
16 21 8 17 -12 -7 -13 -6 -3 7 7 8 11 17 8 19 -10 11 81 9 134 -2 166 -33 255
-156 222 -305 -15 -66 -72 -136 -127 -156 -37 -13 -45 -28 -16 -28 34 0 110
-58 138 -105 39 -67 45 -162 14 -233 -30 -70 -95 -127 -174 -151 l-61 -19 200
-1 c110 0 245 2 299 6 l99 6 -45 23 c-64 33 -127 100 -161 173 -26 55 -31 79
-35 166 -5 113 10 186 55 262 75 129 255 204 421 175 187 -32 311 -167 329
-357 3 -38 10 -62 17 -62 8 0 11 14 10 36 -1 20 -3 36 -4 36 -1 0 -3 12 -4 26
-2 14 2 26 9 26 6 0 12 -6 12 -13 0 -7 -3 -11 -7 -9 -4 2 -7 -2 -7 -9 0 -7 6
-13 12 -13 6 0 11 14 11 31 -1 17 4 30 10 29 6 -1 11 4 11 11 0 7 -6 13 -13
13 -7 0 -10 -5 -7 -10 4 -6 1 -7 -7 -2 -8 5 -11 4 -7 -2 3 -5 0 -10 -8 -10
-13 0 -13 3 0 17 8 9 12 19 9 23 -4 4 2 5 13 3 17 -4 19 1 17 32 -1 21 -3 37
-4 37 -9 0 -4 57 5 65 8 7 12 5 12 -5 0 -8 -3 -12 -7 -10 -4 2 -7 -2 -7 -9 0
-7 6 -13 12 -13 6 0 11 14 11 31 -1 20 4 30 12 28 17 -3 15 3 -5 19 -14 12
-16 12 -8 0 6 -10 4 -12 -5 -6 -8 5 -11 4 -7 -2 3 -5 0 -10 -8 -10 -13 0 -13
3 -2 16 8 9 13 28 12 42 -1 14 4 26 10 26 6 0 12 -6 12 -13 0 -7 -3 -11 -7 -9
-4 2 -7 -2 -7 -9 0 -7 5 -13 12 -13 7 0 10 15 9 36 -1 20 -3 36 -4 36 -1 0 -3
16 -4 37 -2 30 1 36 16 33 10 -2 17 2 15 8 -1 7 4 11 12 9 12 -3 12 0 2 12
-13 15 -36 12 -27 -3 3 -4 -1 -8 -9 -8 -13 0 -13 3 -2 16 8 9 13 28 12 42 -1
14 4 26 10 26 6 0 12 -6 12 -13 0 -7 -3 -11 -7 -9 -4 2 -7 -2 -7 -9 0 -7 5
-13 11 -13 7 0 11 24 11 63 0 34 -2 61 -5 59 -3 -2 -6 11 -6 30 0 25 4 32 17
30 12 -2 15 3 13 23 -1 15 -3 27 -4 27 -1 0 -3 21 -4 46 -1 28 2 46 9 46 7 0
12 -6 12 -13 0 -7 -3 -11 -7 -9 -4 2 -7 -2 -7 -9 0 -7 5 -13 12 -13 12 0 14
75 2 94 -4 6 -3 14 3 18 6 4 7 12 3 18 -4 7 -6 118 -5 247 3 210 1 239 -15
269 -29 55 -65 76 -132 76 -66 0 -101 -19 -131 -68 -18 -29 -20 -52 -20 -279
l0 -248 -124 0 -125 0 -3 253 c-3 280 -5 286 -71 328 -42 26 -134 22 -175 -7
-58 -43 -62 -65 -62 -331 l0 -243 -120 0 -120 0 0 400 0 400 120 0 120 0 0
-47 0 -47 28 26 c59 57 108 73 217 73 83 0 107 -4 141 -22 45 -24 95 -68 111
-97 10 -19 12 -18 38 12 41 49 106 89 174 108 53 15 71 16 134 5 94 -15 93
-15 109 -29 12 -9 15 -9 15 3 0 8 -4 12 -8 9 -15 -9 -24 21 -24 83 -1 50 2 60
15 58 13 -3 16 9 16 68 0 51 3 71 12 69 17 -3 15 3 -5 19 -14 12 -16 12 -8 0
6 -10 4 -12 -5 -6 -8 5 -11 4 -7 -2 3 -5 0 -10 -8 -10 -13 0 -13 3 -2 16 9 10
13 40 12 83 -1 56 2 66 15 63 9 -2 17 3 17 10 0 7 -8 12 -17 10 -12 -2 -16 5
-16 29 0 18 5 33 11 33 7 0 12 -6 12 -13 0 -7 -3 -11 -7 -9 -4 2 -7 -2 -7 -9
0 -7 5 -13 11 -13 8 0 11 50 11 154 l0 153 -5892 0 -5893 0 0 -3840z m11777
3805 c0 -6 -6 -12 -12 -12 -6 0 -12 6 -12 12 0 6 6 12 12 12 6 0 12 -6 12 -12z
m0 -40 c0 -6 -6 -12 -12 -12 -6 0 -12 6 -12 12 0 6 6 12 12 12 6 0 12 -6 12
-12z m0 -40 c0 -6 -6 -12 -12 -12 -6 0 -12 6 -12 12 0 6 6 12 12 12 6 0 12 -6
12 -12z m0 -40 c0 -6 -6 -12 -12 -12 -6 0 -12 6 -12 12 0 6 6 12 12 12 6 0 12
-6 12 -12z m0 -40 c0 -6 -6 -12 -12 -12 -6 0 -12 6 -12 12 0 6 6 12 12 12 6 0
12 -6 12 -12z m0 -40 c0 -6 -6 -12 -12 -12 -6 0 -12 6 -12 12 0 6 6 12 12 12
6 0 12 -6 12 -12z m-20 -298 c0 -8 -6 -14 -14 -14 -9 0 -10 4 -2 14 6 7 12 13
14 13 1 0 2 -6 2 -13z m0 -40 c0 -8 -6 -14 -14 -14 -9 0 -10 4 -2 14 6 7 12
13 14 13 1 0 2 -6 2 -13z m0 -40 c0 -8 -6 -14 -14 -14 -9 0 -10 4 -2 14 6 7
12 13 14 13 1 0 2 -6 2 -13z m-1379 -360 c31 -58 35 -77 40 -162 l5 -96 -64 3
-65 3 0 31 c0 24 4 31 16 29 9 -2 17 3 17 10 0 8 -5 13 -11 12 -6 -1 -10 4 -8
11 1 8 -2 11 -8 7 -6 -3 -8 -11 -4 -17 4 -6 -3 -8 -17 -6 -22 3 -24 0 -21 -31
1 -19 -1 -32 -4 -28 -4 4 -17 -1 -28 -10 -20 -18 -21 -18 -5 2 9 11 15 32 14
47 -1 15 1 25 5 23 9 -6 27 16 25 30 0 6 -4 16 -9 23 -5 9 -1 15 13 19 12 3
21 12 21 19 0 8 5 14 10 14 6 0 10 14 10 30 0 18 5 29 12 28 7 -2 12 9 12 27
0 17 -5 29 -10 28 -6 -1 -11 4 -11 11 0 33 34 4 65 -57z m-53 24 c3 -5 2 -12
-3 -15 -5 -3 -9 1 -9 9 0 17 3 19 12 6z m-68 -166 c0 -6 -6 -12 -12 -12 -6 0
-12 6 -12 12 0 6 6 12 12 12 6 0 12 -6 12 -12z m143 -210 c0 -17 -46 -98 -76
-133 -47 -56 -137 -108 -131 -77 1 6 6 9 11 7 5 -2 4 3 -2 11 -7 8 -8 17 -4
21 4 4 7 13 7 19 1 7 6 11 12 10 13 -3 11 22 -2 34 -4 5 -5 1 0 -7 5 -8 5 -12
1 -8 -4 3 -7 10 -7 15 1 8 5 9 35 12 9 0 13 9 11 20 -3 14 1 19 14 16 10 -2
18 3 18 10 0 8 -3 12 -7 10 -4 -2 -7 2 -7 10 0 8 5 13 11 12 6 -1 10 3 9 9 -1
6 20 12 53 13 30 1 54 -1 54 -4z m1257 -308 c0 -8 -6 -14 -14 -14 -9 0 -10 4
-2 14 6 7 12 13 14 13 1 0 2 -6 2 -13z m-20 -140 c0 -8 -6 -14 -14 -14 -9 0
-10 4 -2 14 6 7 12 13 14 13 1 0 2 -6 2 -13z m-20 -142 c0 -6 -6 -12 -12 -12
-6 0 -12 6 -12 12 0 6 6 12 12 12 6 0 12 -6 12 -12z m-2237 -93 c69 -34 69
-36 70 -515 l0 -429 -34 -34 -34 -34 -256 0 c-282 0 -309 5 -323 58 -5 15 -7
223 -6 462 l3 435 29 28 c15 16 44 33 62 37 19 4 129 8 244 9 181 1 215 -1
245 -17z m-1882 -1 c74 -20 72 -2 72 -601 0 -347 4 -538 10 -551 7 -12 21 -19
40 -19 l30 0 0 73 c0 99 20 132 85 140 26 4 150 7 276 7 226 0 228 0 256 -24
26 -22 28 -32 33 -108 l5 -83 100 -5 c149 -7 176 -29 183 -147 5 -85 16 -103
63 -103 14 0 32 -7 39 -15 7 -8 18 -15 25 -15 29 0 35 -78 35 -474 0 -218 -3
-396 -7 -396 -5 0 -7 -216 -5 -479 3 -424 2 -482 -12 -510 -32 -61 -37 -62
-326 -59 l-262 3 -29 33 -29 32 0 905 c0 497 -3 906 -7 908 -14 9 -621 12
-629 4 -4 -4 -10 -35 -12 -68 -6 -80 8 -105 61 -112 22 -3 49 -15 61 -27 21
-21 21 -21 21 -821 l0 -801 -30 -24 c-30 -24 -31 -24 -287 -24 l-256 0 -31 26
-31 26 2 1630 3 1630 30 21 c18 14 50 24 85 27 104 11 400 11 438 1z m-2548
-32 l25 -21 0 -215 c0 -201 -1 -216 -19 -229 -16 -11 -71 -14 -277 -14 l-258
0 -20 26 c-20 25 -21 39 -21 218 1 268 -17 254 310 255 224 0 236 -1 260 -20z
m6587 -314 c0 -6 -6 -12 -12 -12 -6 0 -12 6 -12 12 0 6 6 12 12 12 6 0 12 -6
12 -12z m-1520 -98 c0 -8 -6 -14 -14 -14 -9 0 -10 4 -2 14 6 7 12 13 14 13 1
0 2 -6 2 -13z m-5792 -523 c11 -3 28 -19 38 -35 16 -28 17 -76 17 -573 l0
-543 -26 -26 c-14 -15 -45 -30 -67 -34 l-42 -9 -6 -79 c-4 -44 -10 -88 -14
-97 -12 -31 -68 -48 -155 -48 -115 0 -120 -4 -120 -96 0 -72 -2 -77 -31 -105
-30 -28 -35 -29 -130 -29 -116 0 -119 -3 -119 -102 0 -35 -6 -74 -13 -87 -15
-31 -71 -50 -167 -58 -108 -8 -110 -10 -110 -97 0 -59 -4 -78 -21 -100 -20
-25 -23 -26 -134 -26 -92 0 -115 -3 -126 -17 -8 -9 -16 -51 -19 -103 -8 -130
10 -123 -296 -121 -274 2 -296 6 -307 54 -3 12 -3 195 0 407 2 212 5 664 6
1005 l2 620 21 3 c16 2 26 -5 37 -28 10 -19 11 -28 4 -23 -8 5 -8 2 0 -9 7 -8
9 -19 5 -24 -4 -4 0 -3 8 3 8 6 22 9 31 8 17 -3 19 10 5 33 -5 8 -3 12 6 10 7
-2 12 2 11 9 -1 6 5 10 15 8 9 -2 27 -4 40 -4 13 -1 20 -5 17 -11 -3 -5 0 -7
8 -4 23 9 114 -43 164 -92 169 -169 143 -495 -50 -628 -68 -46 -126 -66 -213
-73 l-71 -6 3 -121 c10 -340 13 -421 13 -422 1 -1 26 -4 57 -8 62 -7 151 -45
179 -76 25 -28 30 -25 30 17 1 21 2 100 3 176 l2 137 105 0 105 0 1 163 c0 89
2 176 4 192 1 17 6 158 10 315 4 157 8 305 10 330 2 25 4 118 5 207 1 131 -1
166 -13 177 -8 8 -17 12 -21 9 -3 -4 -6 -1 -6 5 0 8 -40 12 -122 15 l-123 3
138 2 c116 2 137 0 137 -13 0 -8 7 -15 15 -15 13 0 15 -69 15 -557 0 -651 7
-989 22 -1020 13 -26 51 -35 77 -17 15 11 19 30 23 93 6 110 12 115 150 119
139 5 139 4 146 159 1 21 12 41 29 58 26 23 35 25 125 25 74 0 100 4 112 16
14 14 16 78 16 554 0 494 1 541 17 569 10 17 27 32 38 34 31 6 477 7 500 1z
m725 -4 c10 -5 23 -24 29 -41 8 -23 11 -362 11 -1161 l0 -1129 -25 -24 -24
-25 -261 0 -261 0 -25 25 -26 26 7 1147 7 1147 24 23 c25 22 30 22 275 22 144
0 258 -4 269 -10z m728 -11 c23 -23 32 -62 32 -128 0 -54 13 -71 51 -71 35 0
38 5 45 82 13 148 -10 138 313 138 318 0 301 6 310 -118 4 -42 10 -83 14 -89
6 -9 39 -13 107 -13 98 0 99 0 134 -34 35 -32 36 -36 36 -104 0 -90 5 -102 42
-102 39 0 88 -29 93 -55 10 -51 14 -1312 5 -1347 -11 -40 -38 -60 -96 -72 -37
-8 -44 -25 -44 -108 0 -46 -5 -62 -24 -85 -23 -27 -28 -28 -133 -31 -67 -3
-111 -8 -115 -15 -4 -7 -8 -38 -8 -70 0 -69 -19 -119 -53 -142 -22 -14 -58
-16 -282 -13 l-257 3 -24 28 c-20 24 -24 39 -24 98 0 39 -5 79 -10 90 -14 24
-56 25 -69 1 -6 -12 -8 -202 -4 -528 3 -280 3 -525 -1 -545 -3 -19 -15 -45
-27 -57 -19 -22 -25 -22 -289 -22 -288 0 -283 -1 -311 52 -8 15 -9 467 -4
1617 8 1663 7 1638 47 1654 7 3 129 6 270 6 248 1 258 0 276 -20z m-3178 -335
c0 -8 -19 -13 -24 -6 -3 5 1 9 9 9 8 0 15 -2 15 -3z m7005 -674 c-3 -5 -1 -10
4 -10 16 0 13 -68 -4 -126 -15 -49 -67 -124 -87 -124 -6 0 -19 -7 -28 -15 -14
-13 -16 -12 -16 9 0 18 5 23 18 21 12 -3 16 0 11 8 -13 20 -12 36 3 48 8 6 12
15 9 18 -2 4 2 8 10 8 10 0 12 -4 5 -12 -5 -7 -6 -16 -2 -20 4 -5 0 -5 -8 0
-8 5 -12 5 -8 0 4 -4 3 -13 -2 -20 -7 -8 -5 -12 5 -12 7 0 13 5 12 11 -1 6 3
10 9 9 12 -2 13 42 1 53 -4 4 -3 12 2 18 5 6 10 16 10 21 1 6 4 10 9 10 17 1
32 17 25 28 -11 18 -12 38 -2 31 5 -3 10 2 10 10 1 9 3 21 4 26 1 6 3 12 4 15
0 3 4 5 7 5 3 0 2 -4 -1 -10z m1260 -729 c3 -5 2 -12 -3 -15 -5 -3 -9 1 -9 9
0 17 3 19 12 6z m-1417 -1370 c62 -28 124 -93 140 -149 16 -52 15 -135 -1
-175 -20 -46 -64 -95 -105 -116 l-36 -19 40 -20 c51 -26 108 -89 123 -135 16
-47 30 -137 21 -132 -4 3 -10 -9 -12 -26 -3 -16 0 -33 5 -36 6 -4 7 -1 2 7 -5
8 -4 11 3 6 7 -4 10 0 7 12 -2 10 2 19 9 19 21 0 14 -25 -12 -49 -14 -13 -22
-17 -17 -9 5 9 4 12 -3 7 -7 -4 -12 -13 -12 -21 0 -7 -5 -15 -11 -17 -5 -2
-11 -11 -13 -21 -1 -10 -5 -16 -8 -15 -9 5 -38 -24 -33 -32 3 -4 -1 -7 -8 -7
-6 1 -34 -10 -62 -24 -49 -24 -55 -24 -354 -27 l-304 -3 6 163 c4 90 6 317 7
506 l0 343 288 -3 c278 -3 289 -4 340 -27z m-308 -1447 c0 -8 -19 -13 -24 -6
-3 5 1 9 9 9 8 0 15 -2 15 -3z"/>
<path d="M10303 6485 c0 -6 6 -12 12 -12 6 0 12 6 12 12 0 6 -6 12 -12 12 -6
0 -12 -6 -12 -12z"/>
<path d="M10211 6187 c-8 -10 -7 -14 2 -14 8 0 14 6 14 14 0 7 -1 13 -2 13 -2
0 -8 -6 -14 -13z"/>
<path d="M4436 5593 c-7 -22 -6 -305 1 -352 l4 -34 232 6 c128 4 233 7 235 7
1 0 2 85 2 189 l0 188 -37 7 c-21 3 -127 6 -235 6 -179 0 -197 -2 -202 -17z"/>
<path d="M3750 4661 l-25 -7 1 -274 c0 -207 9 -545 14 -545 0 0 3 -31 5 -70 6
-97 9 -123 19 -132 4 -4 6 -1 4 7 -2 8 3 14 9 13 7 -2 12 3 10 10 -1 6 4 11
10 10 7 -2 12 3 10 10 -1 6 4 11 10 10 7 -2 12 3 10 10 -1 6 4 11 10 10 7 -2
12 3 10 10 -1 6 4 11 11 9 8 -1 11 2 7 8 -5 8 -13 6 -24 -4 -10 -9 -21 -13
-26 -9 -4 5 -5 3 -2 -3 8 -14 -26 -47 -38 -37 -4 5 -5 2 0 -6 6 -10 4 -12 -4
-7 -14 9 -6 21 12 21 7 0 12 5 12 12 0 14 13 28 28 28 7 1 11 7 9 14 -1 7 2
10 7 7 5 -4 13 -2 16 4 5 8 12 7 23 -2 10 -9 13 -9 9 -1 -6 9 2 10 28 6 19 -3
40 -1 47 4 7 6 20 9 29 8 14 -2 16 5 13 40 -5 45 1 52 70 91 22 12 43 40 35
48 -11 12 -55 13 -69 2 -10 -7 -9 -3 3 10 9 11 14 24 10 29 -5 4 -3 5 3 2 14
-8 47 26 37 37 -5 4 -1 6 7 4 8 -1 14 3 12 10 -1 6 4 11 10 10 7 -2 12 2 11 8
-1 6 5 11 13 11 10 0 4 -11 -16 -32 -17 -17 -27 -35 -23 -40 5 -4 2 -5 -6 0
-10 6 -12 4 -6 -5 6 -9 4 -11 -5 -5 -9 6 -11 4 -5 -5 6 -9 4 -11 -6 -5 -8 5
-10 4 -6 0 4 -5 15 -10 23 -11 9 -1 13 0 10 3 -3 4 2 15 11 26 10 10 17 22 17
26 -1 3 2 5 7 3 5 -1 8 4 7 10 -2 7 2 12 9 11 12 -3 12 14 0 34 -5 8 -1 11 14
8 18 -4 19 -2 8 11 -10 12 -10 15 1 12 16 -4 16 -3 24 293 l7 237 -33 5 c-18
4 -107 6 -197 7 -91 0 -174 2 -185 4 -12 3 -32 1 -46 -3z m250 -867 c0 -8 -19
-13 -24 -6 -3 5 1 9 9 9 8 0 15 -2 15 -3z"/>
<path d="M2529 4389 c0 -2 -2 -11 -4 -20 -1 -9 3 -16 10 -16 7 0 12 6 11 13
-2 13 -15 31 -17 23z"/>
<path d="M2424 4190 c-21 -8 -21 -13 -16 -137 3 -70 5 -156 6 -191 0 -58 2
-63 24 -69 60 -15 150 44 173 115 6 18 9 66 7 106 -3 61 -8 79 -31 110 -16 20
-38 43 -50 50 -29 19 -87 27 -113 16z"/>
<path d="M3458 3445 c-3 -14 -1 -28 4 -31 5 -3 4 -11 -2 -19 -8 -9 -8 -15 0
-20 6 -4 9 -1 8 7 -2 7 3 12 10 11 6 -2 11 3 10 10 -2 6 3 11 10 9 8 -1 11 2
7 8 -3 6 -10 8 -15 5 -5 -3 -11 -1 -14 4 -3 5 8 7 24 6 25 -2 28 0 19 11 -8
10 -6 12 10 9 12 -2 19 0 16 6 -4 5 -23 9 -44 9 -33 0 -39 -3 -43 -25z"/>
<path d="M3457 3315 c-4 -8 -2 -17 4 -20 5 -4 8 -1 7 7 -2 7 3 12 10 10 8 -1
11 2 7 8 -9 14 -22 12 -28 -5z"/>
<path d="M3374 3242 c4 -3 14 -7 22 -8 9 -1 13 0 10 4 -4 3 -14 7 -22 8 -9 1
-13 0 -10 -4z"/>
<path d="M3180 3212 c0 -10 7 -19 15 -19 10 0 12 4 5 12 -8 10 -3 12 20 10 16
-1 28 0 26 4 -3 4 -18 8 -35 9 -24 2 -31 -2 -31 -16z"/>
<path d="M3181 3136 c2 -24 8 -43 14 -43 6 0 12 6 12 13 0 7 -5 10 -11 7 -6
-3 -5 0 1 7 15 16 46 23 37 9 -3 -5 -11 -6 -17 -3 -7 4 -8 3 -4 -1 12 -14 37
-15 34 -2 -1 7 3 11 9 10 6 -1 11 4 11 12 0 8 -3 13 -6 13 -3 -1 -13 1 -21 5
-8 3 -25 7 -38 10 -21 5 -23 2 -21 -37z"/>
<path d="M2962 2982 c1 -22 7 -28 24 -28 13 0 22 5 21 11 -1 5 4 9 11 7 8 -1
11 2 7 8 -5 8 -13 6 -25 -5 -12 -11 -20 -13 -25 -5 -4 6 -1 9 7 8 7 -2 12 2
11 8 -1 7 10 10 27 9 16 -1 27 1 24 6 -3 5 -23 9 -45 9 -37 0 -39 -2 -37 -28z"/>
<path d="M2472 2795 c-36 -16 -35 -10 -18 -105 2 -8 15 -15 29 -15 14 -1 24 2
21 6 -2 4 -13 6 -24 4 -12 -2 -18 0 -15 4 2 5 18 7 35 6 24 -2 28 0 20 10 -8
10 -4 12 20 10 16 -1 27 1 24 6 -3 5 -9 7 -14 4 -5 -3 -11 -2 -14 3 -3 5 17 8
44 7 30 -1 48 3 47 9 -1 6 5 10 13 8 32 -7 -24 38 -59 48 -48 13 -69 12 -109
-5z m144 -32 c-3 -19 -33 -26 -43 -11 -3 6 -1 8 4 5 6 -4 16 0 23 8 16 19 19
19 16 -2z"/>
<path d="M4459 4638 c-7 -64 -6 -159 2 -164 5 -3 6 -11 2 -17 -4 -7 1 -6 10 2
13 10 14 17 6 27 -8 10 -6 12 11 9 18 -3 20 -2 10 10 -10 12 -8 13 7 10 12 -2
20 2 20 10 0 8 -4 12 -8 10 -11 -8 -5 21 9 37 6 8 10 17 7 20 -3 2 2 5 10 5
10 0 12 -4 5 -12 -5 -7 -6 -16 -2 -20 4 -5 0 -5 -8 0 -8 5 -12 4 -7 0 4 -5 13
-10 21 -11 14 -2 16 32 3 53 -5 8 -1 11 14 8 17 -3 19 -2 9 10 -10 12 -8 13 9
10 12 -2 19 0 16 6 -9 14 -145 12 -146 -3z"/>
<path d="M5577 4193 c-4 -3 -7 -41 -7 -83 0 -87 14 -110 67 -110 18 0 38 -9
49 -21 18 -20 19 -48 24 -570 5 -533 6 -549 25 -564 18 -14 54 -15 315 -10
184 4 300 11 308 17 9 8 12 34 10 87 -3 73 -4 76 -28 79 -14 2 -38 8 -53 14
-57 22 -57 17 -57 611 0 488 -2 545 -16 551 -21 8 -629 8 -637 -1z"/>
<path d="M9455 3563 c3 -3 0 -11 -5 -18 -7 -8 -5 -12 4 -12 14 0 16 22 3 32
-4 3 -5 2 -2 -2z"/>
<path d="M8960 1310 l0 -113 108 5 c59 2 117 10 129 17 26 13 53 60 53 91 0
31 -27 78 -53 91 -12 7 -70 15 -129 17 l-108 5 0 -113z"/>
<path d="M8960 911 l0 -111 105 0 c115 0 162 13 189 51 26 38 21 93 -13 131
l-29 33 -126 3 -126 4 0 -111z"/>
<path d="M11763 7305 c0 -6 6 -12 12 -12 6 0 12 6 12 12 0 6 -6 12 -12 12 -6
0 -12 -6 -12 -12z"/>
<path d="M11763 7265 c0 -6 6 -12 12 -12 6 0 12 6 12 12 0 6 -6 12 -12 12 -6
0 -12 -6 -12 -12z"/>
<path d="M11763 7227 c0 -8 6 -14 14 -14 9 0 10 4 2 14 -6 7 -12 13 -14 13 -1
0 -2 -6 -2 -13z"/>
<path d="M11743 7005 c0 -6 6 -12 12 -12 6 0 12 6 12 12 0 6 -6 12 -12 12 -6
0 -12 -6 -12 -12z"/>
<path d="M11743 6965 c0 -6 6 -12 12 -12 6 0 12 6 12 12 0 6 -6 12 -12 12 -6
0 -12 -6 -12 -12z"/>
<path d="M11743 6925 c0 -6 6 -12 12 -12 6 0 12 6 12 12 0 6 -6 12 -12 12 -6
0 -12 -6 -12 -12z"/>
<path d="M11643 5945 c0 -6 6 -12 12 -12 6 0 12 6 12 12 0 6 -6 12 -12 12 -6
0 -12 -6 -12 -12z"/>
<path d="M11623 5845 c0 -6 6 -12 12 -12 6 0 12 6 12 12 0 6 -6 12 -12 12 -6
0 -12 -6 -12 -12z"/>
<path d="M11583 5605 c0 -6 6 -12 12 -12 6 0 12 6 12 12 0 6 -6 12 -12 12 -6
0 -12 -6 -12 -12z"/>
<path d="M11015 5330 c-38 -12 -79 -55 -93 -97 l-11 -33 155 0 c99 0 154 4
154 10 0 27 -31 79 -58 99 -35 24 -103 34 -147 21z"/>
<path d="M10079 5298 c-1 -2 -2 -20 -3 -40 -2 -27 1 -35 9 -28 7 5 14 8 17 5
2 -3 5 2 5 9 0 8 -4 14 -8 13 -4 -1 -7 3 -7 8 0 6 5 9 11 7 6 -2 5 4 -3 12
-12 15 -19 19 -21 14z"/>
<path d="M11485 5089 c3 -3 -2 -12 -9 -18 -10 -9 -93 -12 -291 -11 -251 0
-277 -1 -271 -16 3 -8 6 -22 6 -29 0 -26 61 -85 100 -96 56 -17 108 -4 146 36
l32 34 136 2 c100 1 134 4 129 13 -11 17 -12 35 -3 41 5 3 12 0 16 -6 4 -7 3
-9 -3 -6 -5 3 -10 0 -10 -7 0 -7 6 -13 12 -13 6 0 11 14 11 31 -1 17 4 30 10
29 6 -1 11 4 11 11 0 7 -6 13 -13 13 -7 0 -11 -4 -9 -8z"/>
<path d="M11459 4975 c-1 -3 -2 -8 -3 -12 -1 -5 -5 -14 -9 -20 -5 -7 -5 -13
-1 -13 4 0 -1 -9 -11 -20 -10 -11 -14 -20 -10 -20 5 0 -1 -9 -13 -21 -12 -11
-19 -26 -16 -32 4 -7 3 -9 -1 -4 -5 4 -22 -6 -39 -22 -17 -16 -53 -41 -80 -55
-40 -21 -44 -26 -24 -26 14 0 34 -8 46 -18 19 -17 21 -30 23 -129 1 -80 4
-110 13 -110 8 0 12 11 10 26 -1 14 -3 26 -4 26 -1 0 -3 12 -4 27 -2 21 1 26
16 23 12 -3 16 0 11 8 -12 19 -11 54 2 54 6 0 12 -6 12 -13 0 -7 -3 -11 -7 -9
-4 2 -7 -2 -7 -9 0 -7 5 -13 11 -13 7 0 12 18 12 43 0 23 -3 41 -7 39 -10 -7
-4 44 7 55 7 7 11 6 11 -4 0 -8 -3 -13 -7 -11 -4 2 -7 -2 -7 -9 0 -7 6 -13 12
-13 7 0 11 12 9 26 -1 14 -3 26 -4 26 -1 0 -3 12 -4 26 -2 14 2 26 9 26 6 0
12 -6 12 -13 0 -7 -3 -11 -7 -9 -4 2 -7 -2 -7 -9 0 -7 5 -13 12 -13 12 0 14
75 2 94 -5 8 -1 11 11 8 15 -3 18 3 18 28 -1 18 4 31 9 30 6 -1 11 14 11 33 0
30 -4 44 -7 29z"/>
<path d="M11343 4545 c0 -6 6 -12 12 -12 6 0 12 6 12 12 0 6 -6 12 -12 12 -6
0 -12 -6 -12 -12z"/>
<path d="M11323 4447 c0 -8 6 -14 14 -14 9 0 10 4 2 14 -6 7 -12 13 -14 13 -1
0 -2 -6 -2 -13z"/>
<path d="M10035 4170 c3 -5 22 -10 41 -10 50 0 151 -36 201 -72 75 -54 143
-175 143 -254 l0 -34 65 0 65 0 0 174 c0 149 2 175 16 180 9 3 65 6 125 6
l109 0 0 -51 0 -50 33 30 c73 69 177 93 289 67 40 -10 81 -25 91 -34 15 -14
18 -14 15 -2 -2 8 2 14 8 13 5 -1 10 9 10 22 l0 24 -609 1 c-409 0 -606 -3
-602 -10z m1199 -9 c3 -5 -1 -14 -8 -20 -12 -10 -14 -9 -11 6 2 10 4 19 4 21
2 5 10 2 15 -7z"/>
<path d="M10895 3935 c-22 -8 -41 -15 -41 -15 -8 -1 -39 -61 -44 -87 -7 -30
-5 -34 16 -39 13 -3 24 -10 24 -15 0 -5 6 -9 14 -9 24 0 46 -64 46 -134 0 -75
12 -88 80 -84 30 1 37 5 29 15 -8 9 -6 11 10 8 12 -2 20 1 18 8 -1 7 3 11 9
10 6 -1 10 10 8 25 -1 15 -3 27 -4 27 -9 0 -5 36 4 44 9 8 13 7 13 -4 0 -8 -3
-12 -7 -10 -4 2 -7 -2 -7 -9 0 -7 6 -13 12 -13 13 0 14 35 2 54 -5 8 -1 11 11
8 17 -3 18 3 16 48 -5 79 -9 101 -28 128 -31 49 -115 69 -181 44z m202 -190
c0 -6 -6 -12 -12 -12 -6 0 -12 6 -12 12 0 6 6 12 12 12 6 0 12 -6 12 -12z
m-41 -121 c-3 -18 -13 -27 -32 -30 -14 -2 -14 -1 0 15 9 10 14 20 11 23 -3 2
1 5 9 5 7 0 13 -6 12 -13z"/>
<path d="M10010 2240 l0 -60 105 0 c144 0 187 19 201 88 l7 32 -157 0 -156 0
0 -60z"/>
<path d="M10230 1865 c-6 -8 -2 -11 14 -11 12 0 23 5 23 11 0 7 -6 12 -14 12
-7 0 -18 -5 -23 -12z"/>
<path d="M10090 1625 c-6 -8 -2 -11 14 -11 12 0 23 5 23 11 0 7 -6 12 -14 12
-7 0 -18 -5 -23 -12z"/>
<path d="M9609 908 c-7 -23 -4 -35 7 -35 9 0 11 4 4 12 -5 7 -7 15 -3 18 3 4
3 7 0 7 -4 0 -7 -1 -8 -2z"/>
<path d="M9300 475 c-13 -14 -20 -25 -15 -25 4 0 1 -8 -8 -18 -14 -15 -14 -19
-3 -19 8 0 14 5 13 11 -1 6 4 10 11 9 6 -2 11 3 10 10 -2 6 2 11 8 10 5 -1 10
9 10 23 0 13 -1 24 -1 24 -1 0 -12 -11 -25 -25z m20 1 c0 -2 -8 -10 -17 -17
-16 -13 -17 -12 -4 4 13 16 21 21 21 13z"/>
<path d="M9139 274 c-18 -22 -20 -41 -3 -41 7 0 12 5 11 11 -1 6 3 10 10 9 6
-1 10 4 9 12 -3 23 -12 27 -27 9z m21 2 c0 -2 -8 -10 -17 -17 -16 -13 -17 -12
-4 4 13 16 21 21 21 13z"/>
<path d="M9086 202 c-3 -5 1 -9 9 -9 8 0 12 4 9 9 -3 4 -7 8 -9 8 -2 0 -6 -4
-9 -8z"/>
</g>
</svg>
